<svg class="rich-terminal" viewBox="0 0 1482 1026.0" xmlns="http://www.w3.org/2000/svg">
    <!-- Generated with Rich https://www.textualize.io -->
    <style>

    @font-face {
        font-family: "Fira Code";
        src: local("FiraCode-Regular"),
                url("https://cdnjs.cloudflare.com/ajax/libs/firacode/6.2.0/woff2/FiraCode-Regular.woff2") format("woff2"),
                url("https://cdnjs.cloudflare.com/ajax/libs/firacode/6.2.0/woff/FiraCode-Regular.woff") format("woff");
        font-style: normal;
        font-weight: 400;
    }
    @font-face {
        font-family: "Fira Code";
        src: local("FiraCode-Bold"),
                url("https://cdnjs.cloudflare.com/ajax/libs/firacode/6.2.0/woff2/FiraCode-Bold.woff2") format("woff2"),
                url("https://cdnjs.cloudflare.com/ajax/libs/firacode/6.2.0/woff/FiraCode-Bold.woff") format("woff");
        font-style: bold;
        font-weight: 700;
    }

    .terminal-matrix {
        font-family: Fira Code, monospace;
        font-size: 20px;
        line-height: 24.4px;
        font-variant-east-asian: full-width;
    }

    .terminal-title {
        font-size: 18px;
        font-weight: bold;
        font-family: arial;
    }

    .terminal-r1 { fill: #c5c8c6 }
.terminal-r2 { fill: #ddedf9 }
.terminal-r3 { fill: #ff00ff;font-weight: bold }
.terminal-r4 { fill: #121212 }
.terminal-r5 { fill: #0178d4 }
.terminal-r6 { fill: #dde8f3 }
.terminal-r7 { fill: #91b5da }
.terminal-r8 { fill: #99b3d4;font-weight: bold }
.terminal-r9 { fill: #dde6f1 }
.terminal-r10 { fill: #4ebf71 }
.terminal-r11 { fill: #a5a5a5;font-weight: bold }
.terminal-r12 { fill: #e1e1e1 }
.terminal-r13 { fill: #6f6f6f }
.terminal-r14 { fill: #0053aa }
.terminal-r15 { fill: #6db2ff }
.terminal-r16 { fill: #707070 }
.terminal-r17 { fill: #ddedf9;font-weight: bold }
.terminal-r18 { fill: #004295 }
.terminal-r19 { fill: #99badd }
.terminal-r20 { fill: #008000 }
    </style>

    <defs>
    <clipPath id="terminal-clip-terminal">
      <rect x="0" y="0" width="1463.0" height="975.0" />
    </clipPath>
    <clipPath id="terminal-line-0">
    <rect x="0" y="1.5" width="1464" height="24.65"/>
            </clipPath>
<clipPath id="terminal-line-1">
    <rect x="0" y="25.9" width="1464" height="24.65"/>
            </clipPath>
<clipPath id="terminal-line-2">
    <rect x="0" y="50.3" width="1464" height="24.65"/>
            </clipPath>
<clipPath id="terminal-line-3">
    <rect x="0" y="74.7" width="1464" height="24.65"/>
            </clipPath>
<clipPath id="terminal-line-4">
    <rect x="0" y="99.1" width="1464" height="24.65"/>
            </clipPath>
<clipPath id="terminal-line-5">
    <rect x="0" y="123.5" width="1464" height="24.65"/>
            </clipPath>
<clipPath id="terminal-line-6">
    <rect x="0" y="147.9" width="1464" height="24.65"/>
            </clipPath>
<clipPath id="terminal-line-7">
    <rect x="0" y="172.3" width="1464" height="24.65"/>
            </clipPath>
<clipPath id="terminal-line-8">
    <rect x="0" y="196.7" width="1464" height="24.65"/>
            </clipPath>
<clipPath id="terminal-line-9">
    <rect x="0" y="221.1" width="1464" height="24.65"/>
            </clipPath>
<clipPath id="terminal-line-10">
    <rect x="0" y="245.5" width="1464" height="24.65"/>
            </clipPath>
<clipPath id="terminal-line-11">
    <rect x="0" y="269.9" width="1464" height="24.65"/>
            </clipPath>
<clipPath id="terminal-line-12">
    <rect x="0" y="294.3" width="1464" height="24.65"/>
            </clipPath>
<clipPath id="terminal-line-13">
    <rect x="0" y="318.7" width="1464" height="24.65"/>
            </clipPath>
<clipPath id="terminal-line-14">
    <rect x="0" y="343.1" width="1464" height="24.65"/>
            </clipPath>
<clipPath id="terminal-line-15">
    <rect x="0" y="367.5" width="1464" height="24.65"/>
            </clipPath>
<clipPath id="terminal-line-16">
    <rect x="0" y="391.9" width="1464" height="24.65"/>
            </clipPath>
<clipPath id="terminal-line-17">
    <rect x="0" y="416.3" width="1464" height="24.65"/>
            </clipPath>
<clipPath id="terminal-line-18">
    <rect x="0" y="440.7" width="1464" height="24.65"/>
            </clipPath>
<clipPath id="terminal-line-19">
    <rect x="0" y="465.1" width="1464" height="24.65"/>
            </clipPath>
<clipPath id="terminal-line-20">
    <rect x="0" y="489.5" width="1464" height="24.65"/>
            </clipPath>
<clipPath id="terminal-line-21">
    <rect x="0" y="513.9" width="1464" height="24.65"/>
            </clipPath>
<clipPath id="terminal-line-22">
    <rect x="0" y="538.3" width="1464" height="24.65"/>
            </clipPath>
<clipPath id="terminal-line-23">
    <rect x="0" y="562.7" width="1464" height="24.65"/>
            </clipPath>
<clipPath id="terminal-line-24">
    <rect x="0" y="587.1" width="1464" height="24.65"/>
            </clipPath>
<clipPath id="terminal-line-25">
    <rect x="0" y="611.5" width="1464" height="24.65"/>
            </clipPath>
<clipPath id="terminal-line-26">
    <rect x="0" y="635.9" width="1464" height="24.65"/>
            </clipPath>
<clipPath id="terminal-line-27">
    <rect x="0" y="660.3" width="1464" height="24.65"/>
            </clipPath>
<clipPath id="terminal-line-28">
    <rect x="0" y="684.7" width="1464" height="24.65"/>
            </clipPath>
<clipPath id="terminal-line-29">
    <rect x="0" y="709.1" width="1464" height="24.65"/>
            </clipPath>
<clipPath id="terminal-line-30">
    <rect x="0" y="733.5" width="1464" height="24.65"/>
            </clipPath>
<clipPath id="terminal-line-31">
    <rect x="0" y="757.9" width="1464" height="24.65"/>
            </clipPath>
<clipPath id="terminal-line-32">
    <rect x="0" y="782.3" width="1464" height="24.65"/>
            </clipPath>
<clipPath id="terminal-line-33">
    <rect x="0" y="806.7" width="1464" height="24.65"/>
            </clipPath>
<clipPath id="terminal-line-34">
    <rect x="0" y="831.1" width="1464" height="24.65"/>
            </clipPath>
<clipPath id="terminal-line-35">
    <rect x="0" y="855.5" width="1464" height="24.65"/>
            </clipPath>
<clipPath id="terminal-line-36">
    <rect x="0" y="879.9" width="1464" height="24.65"/>
            </clipPath>
<clipPath id="terminal-line-37">
    <rect x="0" y="904.3" width="1464" height="24.65"/>
            </clipPath>
<clipPath id="terminal-line-38">
    <rect x="0" y="928.7" width="1464" height="24.65"/>
            </clipPath>
    </defs>

    <rect fill="#292929" stroke="rgba(255,255,255,0.35)" stroke-width="1" x="1" y="1" width="1480" height="1024" rx="8"/><text class="terminal-title" fill="#c5c8c6" text-anchor="middle" x="740" y="27">DuhApp</text>
            <g transform="translate(26,22)">
            <circle cx="0" cy="0" r="7" fill="#ff5f57"/>
            <circle cx="22" cy="0" r="7" fill="#febc2e"/>
            <circle cx="44" cy="0" r="7" fill="#28c840"/>
            </g>
        
    <g transform="translate(9, 41)" clip-path="url(#terminal-clip-terminal)">
    <rect fill="#0178d4" x="0" y="1.5" width="12.2" height="24.65" shape-rendering="crispEdges"/><rect fill="#0178d4" x="12.2" y="1.5" width="12.2" height="24.65" shape-rendering="crispEdges"/><rect fill="#0178d4" x="24.4" y="1.5" width="12.2" height="24.65" shape-rendering="crispEdges"/><rect fill="#0178d4" x="36.6" y="1.5" width="36.6" height="24.65" shape-rendering="crispEdges"/><rect fill="#0178d4" x="73.2" y="1.5" width="12.2" height="24.65" shape-rendering="crispEdges"/><rect fill="#0178d4" x="85.4" y="1.5" width="244" height="24.65" shape-rendering="crispEdges"/><rect fill="#0178d4" x="329.4" y="1.5" width="1122.4" height="24.65" shape-rendering="crispEdges"/><rect fill="#0178d4" x="1451.8" y="1.5" width="12.2" height="24.65" shape-rendering="crispEdges"/><rect fill="#121212" x="0" y="25.9" width="12.2" height="24.65" shape-rendering="crispEdges"/><rect fill="#0178d4" x="12.2" y="25.9" width="12.2" height="24.65" shape-rendering="crispEdges"/><rect fill="#0053aa" x="24.4" y="25.9" width="1415.2" height="24.65" shape-rendering="crispEdges"/><rect fill="#121212" x="1439.6" y="25.9" width="12.2" height="24.65" shape-rendering="crispEdges"/><rect fill="#121212" x="1451.8" y="25.9" width="12.2" height="24.65" shape-rendering="crispEdges"/><rect fill="#121212" x="0" y="50.3" width="12.2" height="24.65" shape-rendering="crispEdges"/><rect fill="#0178d4" x="12.2" y="50.3" width="12.2" height="24.65" shape-rendering="crispEdges"/><rect fill="#0053aa" x="24.4" y="50.3" width="1415.2" height="24.65" shape-rendering="crispEdges"/><rect fill="#121212" x="1439.6" y="50.3" width="12.2" height="24.65" shape-rendering="crispEdges"/><rect fill="#121212" x="1451.8" y="50.3" width="12.2" height="24.65" shape-rendering="crispEdges"/><rect fill="#121212" x="0" y="74.7" width="12.2" height="24.65" shape-rendering="crispEdges"/><rect fill="#0178d4" x="12.2" y="74.7" width="12.2" height="24.65" shape-rendering="crispEdges"/><rect fill="#0053aa" x="24.4" y="74.7" width="24.4" height="24.65" shape-rendering="crispEdges"/><rect fill="#0053aa" x="48.8" y="74.7" width="12.2" height="24.65" shape-rendering="crispEdges"/><rect fill="#0053aa" x="61" y="74.7" width="36.6" height="24.65" shape-rendering="crispEdges"/><rect fill="#0053aa" x="97.6" y="74.7" width="12.2" height="24.65" shape-rendering="crispEdges"/><rect fill="#0053aa" x="109.8" y="74.7" width="48.8" height="24.65" shape-rendering="crispEdges"/><rect fill="#0053aa" x="158.6" y="74.7" width="12.2" height="24.65" shape-rendering="crispEdges"/><rect fill="#0053aa" x="170.8" y="74.7" width="36.6" height="24.65" shape-rendering="crispEdges"/><rect fill="#0053aa" x="207.4" y="74.7" width="12.2" height="24.65" shape-rendering="crispEdges"/><rect fill="#0053aa" x="219.6" y="74.7" width="292.8" height="24.65" shape-rendering="crispEdges"/><rect fill="#0053aa" x="512.4" y="74.7" width="927.2" height="24.65" shape-rendering="crispEdges"/><rect fill="#121212" x="1439.6" y="74.7" width="12.2" height="24.65" shape-rendering="crispEdges"/><rect fill="#121212" x="1451.8" y="74.7" width="12.2" height="24.65" shape-rendering="crispEdges"/><rect fill="#121212" x="0" y="99.1" width="12.2" height="24.65" shape-rendering="crispEdges"/><rect fill="#0178d4" x="12.2" y="99.1" width="12.2" height="24.65" shape-rendering="crispEdges"/><rect fill="#0053aa" x="24.4" y="99.1" width="24.4" height="24.65" shape-rendering="crispEdges"/><rect fill="#0053aa" x="48.8" y="99.1" width="0" height="24.65" shape-rendering="crispEdges"/><rect fill="#0053aa" x="48.8" y="99.1" width="1390.8" height="24.65" shape-rendering="crispEdges"/><rect fill="#121212" x="1439.6" y="99.1" width="12.2" height="24.65" shape-rendering="crispEdges"/><rect fill="#121212" x="1451.8" y="99.1" width="12.2" height="24.65" shape-rendering="crispEdges"/><rect fill="#121212" x="0" y="123.5" width="12.2" height="24.65" shape-rendering="crispEdges"/><rect fill="#0178d4" x="12.2" y="123.5" width="12.2" height="24.65" shape-rendering="crispEdges"/><rect fill="#0053aa" x="24.4" y="123.5" width="24.4" height="24.65" shape-rendering="crispEdges"/><rect fill="#0053aa" x="48.8" y="123.5" width="97.6" height="24.65" shape-rendering="crispEdges"/><rect fill="#0053aa" x="146.4" y="123.5" width="195.2" height="24.65" shape-rendering="crispEdges"/><rect fill="#0053aa" x="341.6" y="123.5" width="109.8" height="24.65" shape-rendering="crispEdges"/><rect fill="#0053aa" x="451.4" y="123.5" width="24.4" height="24.65" shape-rendering="crispEdges"/><rect fill="#0053aa" x="475.8" y="123.5" width="963.8" height="24.65" shape-rendering="crispEdges"/><rect fill="#121212" x="1439.6" y="123.5" width="12.2" height="24.65" shape-rendering="crispEdges"/><rect fill="#121212" x="1451.8" y="123.5" width="12.2" height="24.65" shape-rendering="crispEdges"/><rect fill="#121212" x="0" y="147.9" width="12.2" height="24.65" shape-rendering="crispEdges"/><rect fill="#0178d4" x="12.2" y="147.9" width="12.2" height="24.65" shape-rendering="crispEdges"/><rect fill="#0053aa" x="24.4" y="147.9" width="24.4" height="24.65" shape-rendering="crispEdges"/><rect fill="#0053aa" x="48.8" y="147.9" width="73.2" height="24.65" shape-rendering="crispEdges"/><rect fill="#0053aa" x="122" y="147.9" width="207.4" height="24.65" shape-rendering="crispEdges"/><rect fill="#0053aa" x="329.4" y="147.9" width="97.6" height="24.65" shape-rendering="crispEdges"/><rect fill="#0053aa" x="427" y="147.9" width="134.2" height="24.65" shape-rendering="crispEdges"/><rect fill="#0053aa" x="561.2" y="147.9" width="146.4" height="24.65" shape-rendering="crispEdges"/><rect fill="#0053aa" x="707.6" y="147.9" width="158.6" height="24.65" shape-rendering="crispEdges"/><rect fill="#0053aa" x="866.2" y="147.9" width="573.4" height="24.65" shape-rendering="crispEdges"/><rect fill="#121212" x="1439.6" y="147.9" width="12.2" height="24.65" shape-rendering="crispEdges"/><rect fill="#121212" x="1451.8" y="147.9" width="12.2" height="24.65" shape-rendering="crispEdges"/><rect fill="#121212" x="0" y="172.3" width="12.2" height="24.65" shape-rendering="crispEdges"/><rect fill="#0178d4" x="12.2" y="172.3" width="12.2" height="24.65" shape-rendering="crispEdges"/><rect fill="#0053aa" x="24.4" y="172.3" width="24.4" height="24.65" shape-rendering="crispEdges"/><rect fill="#0053aa" x="48.8" y="172.3" width="695.4" height="24.65" shape-rendering="crispEdges"/><rect fill="#0053aa" x="744.2" y="172.3" width="695.4" height="24.65" shape-rendering="crispEdges"/><rect fill="#121212" x="1439.6" y="172.3" width="12.2" height="24.65" shape-rendering="crispEdges"/><rect fill="#121212" x="1451.8" y="172.3" width="12.2" height="24.65" shape-rendering="crispEdges"/><rect fill="#121212" x="0" y="196.7" width="12.2" height="24.65" shape-rendering="crispEdges"/><rect fill="#0178d4" x="12.2" y="196.7" width="12.2" height="24.65" shape-rendering="crispEdges"/><rect fill="#0053aa" x="24.4" y="196.7" width="24.4" height="24.65" shape-rendering="crispEdges"/><rect fill="#0053aa" x="48.8" y="196.7" width="475.8" height="24.65" shape-rendering="crispEdges"/><rect fill="#0053aa" x="524.6" y="196.7" width="915" height="24.65" shape-rendering="crispEdges"/><rect fill="#121212" x="1439.6" y="196.7" width="12.2" height="24.65" shape-rendering="crispEdges"/><rect fill="#121212" x="1451.8" y="196.7" width="12.2" height="24.65" shape-rendering="crispEdges"/><rect fill="#121212" x="0" y="221.1" width="12.2" height="24.65" shape-rendering="crispEdges"/><rect fill="#0178d4" x="12.2" y="221.1" width="12.2" height="24.65" shape-rendering="crispEdges"/><rect fill="#0053aa" x="24.4" y="221.1" width="1415.2" height="24.65" shape-rendering="crispEdges"/><rect fill="#121212" x="1439.6" y="221.1" width="12.2" height="24.65" shape-rendering="crispEdges"/><rect fill="#121212" x="1451.8" y="221.1" width="12.2" height="24.65" shape-rendering="crispEdges"/><rect fill="#121212" x="0" y="245.5" width="12.2" height="24.65" shape-rendering="crispEdges"/><rect fill="#0178d4" x="12.2" y="245.5" width="12.2" height="24.65" shape-rendering="crispEdges"/><rect fill="#0053aa" x="24.4" y="245.5" width="1415.2" height="24.65" shape-rendering="crispEdges"/><rect fill="#121212" x="1439.6" y="245.5" width="12.2" height="24.65" shape-rendering="crispEdges"/><rect fill="#121212" x="1451.8" y="245.5" width="12.2" height="24.65" shape-rendering="crispEdges"/><rect fill="#121212" x="0" y="269.9" width="1464" height="24.65" shape-rendering="crispEdges"/><rect fill="#121212" x="0" y="294.3" width="12.2" height="24.65" shape-rendering="crispEdges"/><rect fill="#004295" x="12.2" y="294.3" width="12.2" height="24.65" shape-rendering="crispEdges"/><rect fill="#004295" x="24.4" y="294.3" width="12.2" height="24.65" shape-rendering="crispEdges"/><rect fill="#004295" x="36.6" y="294.3" width="36.6" height="24.65" shape-rendering="crispEdges"/><rect fill="#004295" x="73.2" y="294.3" width="1378.6" height="24.65" shape-rendering="crispEdges"/><rect fill="#121212" x="1451.8" y="294.3" width="12.2" height="24.65" shape-rendering="crispEdges"/><rect fill="#121212" x="0" y="318.7" width="12.2" height="24.65" shape-rendering="crispEdges"/><rect fill="#004295" x="12.2" y="318.7" width="12.2" height="24.65" shape-rendering="crispEdges"/><rect fill="#004295" x="24.4" y="318.7" width="12.2" height="24.65" shape-rendering="crispEdges"/><rect fill="#004295" x="36.6" y="318.7" width="280.6" height="24.65" shape-rendering="crispEdges"/><rect fill="#004295" x="317.2" y="318.7" width="1134.6" height="24.65" shape-rendering="crispEdges"/><rect fill="#121212" x="1451.8" y="318.7" width="12.2" height="24.65" shape-rendering="crispEdges"/><rect fill="#121212" x="0" y="343.1" width="1464" height="24.65" shape-rendering="crispEdges"/><rect fill="#121212" x="0" y="367.5" width="12.2" height="24.65" shape-rendering="crispEdges"/><rect fill="#1e1e1e" x="12.2" y="367.5" width="12.2" height="24.65" shape-rendering="crispEdges"/><rect fill="#1e1e1e" x="24.4" y="367.5" width="12.2" height="24.65" shape-rendering="crispEdges"/><rect fill="#1e1e1e" x="36.6" y="367.5" width="109.8" height="24.65" shape-rendering="crispEdges"/><rect fill="#1e1e1e" x="146.4" y="367.5" width="1305.4" height="24.65" shape-rendering="crispEdges"/><rect fill="#121212" x="1451.8" y="367.5" width="12.2" height="24.65" shape-rendering="crispEdges"/><rect fill="#121212" x="0" y="391.9" width="12.2" height="24.65" shape-rendering="crispEdges"/><rect fill="#1e1e1e" x="12.2" y="391.9" width="12.2" height="24.65" shape-rendering="crispEdges"/><rect fill="#1e1e1e" x="24.4" y="391.9" width="12.2" height="24.65" shape-rendering="crispEdges"/><rect fill="#1e1e1e" x="36.6" y="391.9" width="1403" height="24.65" shape-rendering="crispEdges"/><rect fill="#1e1e1e" x="1439.6" y="391.9" width="12.2" height="24.65" shape-rendering="crispEdges"/><rect fill="#121212" x="1451.8" y="391.9" width="12.2" height="24.65" shape-rendering="crispEdges"/><rect fill="#121212" x="0" y="416.3" width="1464" height="24.65" shape-rendering="crispEdges"/><rect fill="#121212" x="0" y="440.7" width="12.2" height="24.65" shape-rendering="crispEdges"/><rect fill="#004295" x="12.2" y="440.7" width="12.2" height="24.65" shape-rendering="crispEdges"/><rect fill="#004295" x="24.4" y="440.7" width="12.2" height="24.65" shape-rendering="crispEdges"/><rect fill="#004295" x="36.6" y="440.7" width="36.6" height="24.65" shape-rendering="crispEdges"/><rect fill="#004295" x="73.2" y="440.7" width="1378.6" height="24.65" shape-rendering="crispEdges"/><rect fill="#121212" x="1451.8" y="440.7" width="12.2" height="24.65" shape-rendering="crispEdges"/><rect fill="#121212" x="0" y="465.1" width="12.2" height="24.65" shape-rendering="crispEdges"/><rect fill="#004295" x="12.2" y="465.1" width="12.2" height="24.65" shape-rendering="crispEdges"/><rect fill="#004295" x="24.4" y="465.1" width="12.2" height="24.65" shape-rendering="crispEdges"/><rect fill="#004295" x="36.6" y="465.1" width="280.6" height="24.65" shape-rendering="crispEdges"/><rect fill="#004295" x="317.2" y="465.1" width="1134.6" height="24.65" shape-rendering="crispEdges"/><rect fill="#121212" x="1451.8" y="465.1" width="12.2" height="24.65" shape-rendering="crispEdges"/><rect fill="#121212" x="0" y="489.5" width="1464" height="24.65" shape-rendering="crispEdges"/><rect fill="#121212" x="0" y="513.9" width="12.2" height="24.65" shape-rendering="crispEdges"/><rect fill="#1e1e1e" x="12.2" y="513.9" width="12.2" height="24.65" shape-rendering="crispEdges"/><rect fill="#1e1e1e" x="24.4" y="513.9" width="12.2" height="24.65" shape-rendering="crispEdges"/><rect fill="#1e1e1e" x="36.6" y="513.9" width="109.8" height="24.65" shape-rendering="crispEdges"/><rect fill="#1e1e1e" x="146.4" y="513.9" width="1305.4" height="24.65" shape-rendering="crispEdges"/><rect fill="#121212" x="1451.8" y="513.9" width="12.2" height="24.65" shape-rendering="crispEdges"/><rect fill="#121212" x="0" y="538.3" width="12.2" height="24.65" shape-rendering="crispEdges"/><rect fill="#1e1e1e" x="12.2" y="538.3" width="12.2" height="24.65" shape-rendering="crispEdges"/><rect fill="#1e1e1e" x="24.4" y="538.3" width="12.2" height="24.65" shape-rendering="crispEdges"/><rect fill="#1e1e1e" x="36.6" y="538.3" width="1403" height="24.65" shape-rendering="crispEdges"/><rect fill="#1e1e1e" x="1439.6" y="538.3" width="12.2" height="24.65" shape-rendering="crispEdges"/><rect fill="#121212" x="1451.8" y="538.3" width="12.2" height="24.65" shape-rendering="crispEdges"/><rect fill="#121212" x="0" y="562.7" width="1464" height="24.65" shape-rendering="crispEdges"/><rect fill="#121212" x="0" y="587.1" width="12.2" height="24.65" shape-rendering="crispEdges"/><rect fill="#004295" x="12.2" y="587.1" width="12.2" height="24.65" shape-rendering="crispEdges"/><rect fill="#004295" x="24.4" y="587.1" width="12.2" height="24.65" shape-rendering="crispEdges"/><rect fill="#004295" x="36.6" y="587.1" width="36.6" height="24.65" shape-rendering="crispEdges"/><rect fill="#004295" x="73.2" y="587.1" width="1378.6" height="24.65" shape-rendering="crispEdges"/><rect fill="#121212" x="1451.8" y="587.1" width="12.2" height="24.65" shape-rendering="crispEdges"/><rect fill="#121212" x="0" y="611.5" width="12.2" height="24.65" shape-rendering="crispEdges"/><rect fill="#004295" x="12.2" y="611.5" width="12.2" height="24.65" shape-rendering="crispEdges"/><rect fill="#004295" x="24.4" y="611.5" width="12.2" height="24.65" shape-rendering="crispEdges"/><rect fill="#004295" x="36.6" y="611.5" width="280.6" height="24.65" shape-rendering="crispEdges"/><rect fill="#004295" x="317.2" y="611.5" width="1134.6" height="24.65" shape-rendering="crispEdges"/><rect fill="#121212" x="1451.8" y="611.5" width="12.2" height="24.65" shape-rendering="crispEdges"/><rect fill="#121212" x="0" y="635.9" width="1464" height="24.65" shape-rendering="crispEdges"/><rect fill="#121212" x="0" y="660.3" width="561.2" height="24.65" shape-rendering="crispEdges"/><rect fill="#121212" x="561.2" y="660.3" width="329.4" height="24.65" shape-rendering="crispEdges"/><rect fill="#121212" x="890.6" y="660.3" width="573.4" height="24.65" shape-rendering="crispEdges"/><rect fill="#121212" x="0" y="684.7" width="1464" height="24.65" shape-rendering="crispEdges"/><rect fill="#121212" x="0" y="709.1" width="1464" height="24.65" shape-rendering="crispEdges"/><rect fill="#121212" x="0" y="733.5" width="1464" height="24.65" shape-rendering="crispEdges"/><rect fill="#121212" x="0" y="757.9" width="1464" height="24.65" shape-rendering="crispEdges"/><rect fill="#121212" x="0" y="782.3" width="1464" height="24.65" shape-rendering="crispEdges"/><rect fill="#121212" x="0" y="806.7" width="1464" height="24.65" shape-rendering="crispEdges"/><rect fill="#121212" x="0" y="831.1" width="1464" height="24.65" shape-rendering="crispEdges"/><rect fill="#1e1e1e" x="0" y="855.5" width="1464" height="24.65" shape-rendering="crispEdges"/><rect fill="#1e1e1e" x="0" y="879.9" width="12.2" height="24.65" shape-rendering="crispEdges"/><rect fill="#121212" x="12.2" y="879.9" width="1354.2" height="24.65" shape-rendering="crispEdges"/><rect fill="#1e1e1e" x="1366.4" y="879.9" width="12.2" height="24.65" shape-rendering="crispEdges"/><rect fill="#0178d4" x="1378.6" y="879.9" width="73.2" height="24.65" shape-rendering="crispEdges"/><rect fill="#1e1e1e" x="1451.8" y="879.9" width="12.2" height="24.65" shape-rendering="crispEdges"/><rect fill="#1e1e1e" x="0" y="904.3" width="12.2" height="24.65" shape-rendering="crispEdges"/><rect fill="#121212" x="12.2" y="904.3" width="12.2" height="24.65" shape-rendering="crispEdges"/><rect fill="#121212" x="24.4" y="904.3" width="12.2" height="24.65" shape-rendering="crispEdges"/><rect fill="#e0e0e0" x="36.6" y="904.3" width="12.2" height="24.65" shape-rendering="crispEdges"/><rect fill="#121212" x="48.8" y="904.3" width="829.6" height="24.65" shape-rendering="crispEdges"/><rect fill="#121212" x="878.4" y="904.3" width="475.8" height="24.65" shape-rendering="crispEdges"/><rect fill="#121212" x="1354.2" y="904.3" width="12.2" height="24.65" shape-rendering="crispEdges"/><rect fill="#1e1e1e" x="1366.4" y="904.3" width="12.2" height="24.65" shape-rendering="crispEdges"/><rect fill="#0178d4" x="1378.6" y="904.3" width="73.2" height="24.65" shape-rendering="crispEdges"/><rect fill="#1e1e1e" x="1451.8" y="904.3" width="12.2" height="24.65" shape-rendering="crispEdges"/><rect fill="#1e1e1e" x="0" y="928.7" width="12.2" height="24.65" shape-rendering="crispEdges"/><rect fill="#121212" x="12.2" y="928.7" width="1354.2" height="24.65" shape-rendering="crispEdges"/><rect fill="#1e1e1e" x="1366.4" y="928.7" width="12.2" height="24.65" shape-rendering="crispEdges"/><rect fill="#0178d4" x="1378.6" y="928.7" width="73.2" height="24.65" shape-rendering="crispEdges"/><rect fill="#1e1e1e" x="1451.8" y="928.7" width="12.2" height="24.65" shape-rendering="crispEdges"/><rect fill="#0053aa" x="0" y="953.1" width="12.2" height="24.65" shape-rendering="crispEdges"/><rect fill="#0053aa" x="12.2" y="953.1" width="12.2" height="24.65" shape-rendering="crispEdges"/><rect fill="#0053aa" x="24.4" y="953.1" width="12.2" height="24.65" shape-rendering="crispEdges"/><rect fill="#0053aa" x="36.6" y="953.1" width="12.2" height="24.65" shape-rendering="crispEdges"/><rect fill="#0053aa" x="48.8" y="953.1" width="12.2" height="24.65" shape-rendering="crispEdges"/><rect fill="#0053aa" x="61" y="953.1" width="12.2" height="24.65" shape-rendering="crispEdges"/><rect fill="#0053aa" x="73.2" y="953.1" width="12.2" height="24.65" shape-rendering="crispEdges"/><rect fill="#0053aa" x="85.4" y="953.1" width="24.4" height="24.65" shape-rendering="crispEdges"/><rect fill="#0053aa" x="109.8" y="953.1" width="109.8" height="24.65" shape-rendering="crispEdges"/><rect fill="#0053aa" x="219.6" y="953.1" width="109.8" height="24.65" shape-rendering="crispEdges"/><rect fill="#0053aa" x="329.4" y="953.1" width="1122.4" height="24.65" shape-rendering="crispEdges"/><rect fill="#0053aa" x="1451.8" y="953.1" width="12.2" height="24.65" shape-rendering="crispEdges"/>
    <g class="terminal-matrix">
    <text class="terminal-r3" x="24.4" y="20" textLength="12.2" clip-path="url(#terminal-line-0)">D</text><text class="terminal-r2" x="36.6" y="20" textLength="36.6" clip-path="url(#terminal-line-0)">.U.</text><text class="terminal-r3" x="73.2" y="20" textLength="12.2" clip-path="url(#terminal-line-0)">H</text><text class="terminal-r2" x="85.4" y="20" textLength="244" clip-path="url(#terminal-line-0)">.&#160;|&#160;snapshot-model&#160;&#160;</text><text class="terminal-r1" x="1464" y="20" textLength="12.2" clip-path="url(#terminal-line-0)">
</text><text class="terminal-r4" x="12.2" y="44.4" textLength="12.2" clip-path="url(#terminal-line-1)">▊</text><text class="terminal-r5" x="24.4" y="44.4" textLength="1415.2" clip-path="url(#terminal-line-1)">▔▔▔▔▔▔▔▔▔▔▔▔▔▔▔▔▔▔▔▔▔▔▔▔▔▔▔▔▔▔▔▔▔▔▔▔▔▔▔▔▔▔▔▔▔▔▔▔▔▔▔▔▔▔▔▔▔▔▔▔▔▔▔▔▔▔▔▔▔▔▔▔▔▔▔▔▔▔▔▔▔▔▔▔▔▔▔▔▔▔▔▔▔▔▔▔▔▔▔▔▔▔▔▔▔▔▔▔▔▔▔▔▔▔▔▔</text><text class="terminal-r5" x="1439.6" y="44.4" textLength="12.2" clip-path="url(#terminal-line-1)">▎</text><text class="terminal-r1" x="1464" y="44.4" textLength="12.2" clip-path="url(#terminal-line-1)">
</text><text class="terminal-r4" x="12.2" y="68.8" textLength="12.2" clip-path="url(#terminal-line-2)">▊</text><text class="terminal-r5" x="1439.6" y="68.8" textLength="12.2" clip-path="url(#terminal-line-2)">▎</text><text class="terminal-r1" x="1464" y="68.8" textLength="12.2" clip-path="url(#terminal-line-2)">
</text><text class="terminal-r4" x="12.2" y="93.2" textLength="12.2" clip-path="url(#terminal-line-3)">▊</text><text class="terminal-r3" x="48.8" y="93.2" textLength="12.2" clip-path="url(#terminal-line-3)">D</text><text class="terminal-r6" x="61" y="93.2" textLength="36.6" clip-path="url(#terminal-line-3)">.U.</text><text class="terminal-r3" x="97.6" y="93.2" textLength="12.2" clip-path="url(#terminal-line-3)">H</text><text class="terminal-r6" x="109.8" y="93.2" textLength="48.8" clip-path="url(#terminal-line-3)">.&#160;—&#160;</text><text class="terminal-r3" x="158.6" y="93.2" textLength="12.2" clip-path="url(#terminal-line-3)">D</text><text class="terminal-r6" x="170.8" y="93.2" textLength="36.6" clip-path="url(#terminal-line-3)">.U.</text><text class="terminal-r3" x="207.4" y="93.2" textLength="12.2" clip-path="url(#terminal-line-3)">H</text><text class="terminal-r6" x="219.6" y="93.2" textLength="292.8" clip-path="url(#terminal-line-3)">.&#160;is&#160;a&#160;Universal&#160;Harness</text><text class="terminal-r5" x="1439.6" y="93.2" textLength="12.2" clip-path="url(#terminal-line-3)">▎</text><text class="terminal-r1" x="1464" y="93.2" textLength="12.2" clip-path="url(#terminal-line-3)">
</text><text class="terminal-r4" x="12.2" y="117.6" textLength="12.2" clip-path="url(#terminal-line-4)">▊</text><text class="terminal-r5" x="1439.6" y="117.6" textLength="12.2" clip-path="url(#terminal-line-4)">▎</text><text class="terminal-r1" x="1464" y="117.6" textLength="12.2" clip-path="url(#terminal-line-4)">
</text><text class="terminal-r4" x="12.2" y="142" textLength="12.2" clip-path="url(#terminal-line-5)">▊</text><text class="terminal-r7" x="48.8" y="142" textLength="97.6" clip-path="url(#terminal-line-5)">Project:</text><text class="terminal-r6" x="146.4" y="142" textLength="195.2" clip-path="url(#terminal-line-5)">&#160;/tmp/snapshot&#160;&#160;</text><text class="terminal-r7" x="341.6" y="142" textLength="109.8" clip-path="url(#terminal-line-5)">Sessions:</text><text class="terminal-r6" x="451.4" y="142" textLength="24.4" clip-path="url(#terminal-line-5)">&#160;0</text><text class="terminal-r5" x="1439.6" y="142" textLength="12.2" clip-path="url(#terminal-line-5)">▎</text><text class="terminal-r1" x="1464" y="142" textLength="12.2" clip-path="url(#terminal-line-5)">
</text><text class="terminal-r4" x="12.2" y="166.4" textLength="12.2" clip-path="url(#terminal-line-6)">▊</text><text class="terminal-r7" x="48.8" y="166.4" textLength="73.2" clip-path="url(#terminal-line-6)">Model:</text><text class="terminal-r6" x="122" y="166.4" textLength="207.4" clip-path="url(#terminal-line-6)">&#160;snapshot-model&#160;&#160;</text><text class="terminal-r7" x="329.4" y="166.4" textLength="97.6" clip-path="url(#terminal-line-6)">Session:</text><text class="terminal-r6" x="427" y="166.4" textLength="134.2" clip-path="url(#terminal-line-6)">&#160;snapshot&#160;&#160;</text><text class="terminal-r7" x="561.2" y="166.4" textLength="146.4" clip-path="url(#terminal-line-6)">Permissions:</text><text class="terminal-r6" x="707.6" y="166.4" textLength="158.6" clip-path="url(#terminal-line-6)">&#160;auto-approve</text><text class="terminal-r5" x="1439.6" y="166.4" textLength="12.2" clip-path="url(#terminal-line-6)">▎</text><text class="terminal-r1" x="1464" y="166.4" textLength="12.2" clip-path="url(#terminal-line-6)">
</text><text class="terminal-r4" x="12.2" y="190.8" textLength="12.2" clip-path="url(#terminal-line-7)">▊</text><text class="terminal-r7" x="48.8" y="190.8" textLength="695.4" clip-path="url(#terminal-line-7)">Type&#160;a&#160;message&#160;below.&#160;Ctrl+Q&#160;to&#160;quit.&#160;Ctrl+B&#160;for&#160;sidebar.</text><text class="terminal-r5" x="1439.6" y="190.8" textLength="12.2" clip-path="url(#terminal-line-7)">▎</text><text class="terminal-r1" x="1464" y="190.8" textLength="12.2" clip-path="url(#terminal-line-7)">
</text><text class="terminal-r4" x="12.2" y="215.2" textLength="12.2" clip-path="url(#terminal-line-8)">▊</text><text class="terminal-r7" x="48.8" y="215.2" textLength="475.8" clip-path="url(#terminal-line-8)">Select&#160;text&#160;with&#160;mouse,&#160;Ctrl+C&#160;to&#160;copy.</text><text class="terminal-r5" x="1439.6" y="215.2" textLength="12.2" clip-path="url(#terminal-line-8)">▎</text><text class="terminal-r1" x="1464" y="215.2" textLength="12.2" clip-path="url(#terminal-line-8)">
</text><text class="terminal-r4" x="12.2" y="239.6" textLength="12.2" clip-path="url(#terminal-line-9)">▊</text><text class="terminal-r5" x="1439.6" y="239.6" textLength="12.2" clip-path="url(#terminal-line-9)">▎</text><text class="terminal-r1" x="1464" y="239.6" textLength="12.2" clip-path="url(#terminal-line-9)">
</text><text class="terminal-r4" x="12.2" y="264" textLength="12.2" clip-path="url(#terminal-line-10)">▊</text><text class="terminal-r5" x="24.4" y="264" textLength="1415.2" clip-path="url(#terminal-line-10)">▁▁▁▁▁▁▁▁▁▁▁▁▁▁▁▁▁▁▁▁▁▁▁▁▁▁▁▁▁▁▁▁▁▁▁▁▁▁▁▁▁▁▁▁▁▁▁▁▁▁▁▁▁▁▁▁▁▁▁▁▁▁▁▁▁▁▁▁▁▁▁▁▁▁▁▁▁▁▁▁▁▁▁▁▁▁▁▁▁▁▁▁▁▁▁▁▁▁▁▁▁▁▁▁▁▁▁▁▁▁▁▁▁▁▁▁</text><text class="terminal-r5" x="1439.6" y="264" textLength="12.2" clip-path="url(#terminal-line-10)">▎</text><text class="terminal-r1" x="1464" y="264" textLength="12.2" clip-path="url(#terminal-line-10)">
</text><text class="terminal-r1" x="1464" y="288.4" textLength="12.2" clip-path="url(#terminal-line-11)">
</text><text class="terminal-r5" x="12.2" y="312.8" textLength="12.2" clip-path="url(#terminal-line-12)">█</text><text class="terminal-r8" x="36.6" y="312.8" textLength="36.6" clip-path="url(#terminal-line-12)">You</text><text class="terminal-r1" x="1464" y="312.8" textLength="12.2" clip-path="url(#terminal-line-12)">
</text><text class="terminal-r5" x="12.2" y="337.2" textLength="12.2" clip-path="url(#terminal-line-13)">█</text><text class="terminal-r9" x="36.6" y="337.2" textLength="280.6" clip-path="url(#terminal-line-13)">Sample&#160;user&#160;message&#160;#1.</text><text class="terminal-r1" x="1464" y="337.2" textLength="12.2" clip-path="url(#terminal-line-13)">
</text><text class="terminal-r1" x="1464" y="361.6" textLength="12.2" clip-path="url(#terminal-line-14)">
</text><text class="terminal-r10" x="12.2" y="386" textLength="12.2" clip-path="url(#terminal-line-15)">█</text><text class="terminal-r11" x="36.6" y="386" textLength="109.8" clip-path="url(#terminal-line-15)">Assistant</text><text class="terminal-r1" x="1464" y="386" textLength="12.2" clip-path="url(#terminal-line-15)">
</text><text class="terminal-r10" x="12.2" y="410.4" textLength="12.2" clip-path="url(#terminal-line-16)">█</text><text class="terminal-r12" x="36.6" y="410.4" textLength="1403" clip-path="url(#terminal-line-16)">Sample&#160;assistant&#160;message&#160;#2.&#160;&#160;&#160;&#160;&#160;&#160;&#160;&#160;&#160;&#160;&#160;&#160;&#160;&#160;&#160;&#160;&#160;&#160;&#160;&#160;&#160;&#160;&#160;&#160;&#160;&#160;&#160;&#160;&#160;&#160;&#160;&#160;&#160;&#160;&#160;&#160;&#160;&#160;&#160;&#160;&#160;&#160;&#160;&#160;&#160;&#160;&#160;&#160;&#160;&#160;&#160;&#160;&#160;&#160;&#160;&#160;&#160;&#160;&#160;&#160;&#160;&#160;&#160;&#160;&#160;&#160;&#160;&#160;&#160;&#160;&#160;&#160;&#160;&#160;&#160;&#160;&#160;&#160;&#160;&#160;&#160;&#160;&#160;&#160;&#160;&#160;&#160;</text><text class="terminal-r1" x="1464" y="410.4" textLength="12.2" clip-path="url(#terminal-line-16)">
</text><text class="terminal-r1" x="1464" y="434.8" textLength="12.2" clip-path="url(#terminal-line-17)">
</text><text class="terminal-r5" x="12.2" y="459.2" textLength="12.2" clip-path="url(#terminal-line-18)">█</text><text class="terminal-r8" x="36.6" y="459.2" textLength="36.6" clip-path="url(#terminal-line-18)">You</text><text class="terminal-r1" x="1464" y="459.2" textLength="12.2" clip-path="url(#terminal-line-18)">
</text><text class="terminal-r5" x="12.2" y="483.6" textLength="12.2" clip-path="url(#terminal-line-19)">█</text><text class="terminal-r9" x="36.6" y="483.6" textLength="280.6" clip-path="url(#terminal-line-19)">Sample&#160;user&#160;message&#160;#3.</text><text class="terminal-r1" x="1464" y="483.6" textLength="12.2" clip-path="url(#terminal-line-19)">
</text><text class="terminal-r1" x="1464" y="508" textLength="12.2" clip-path="url(#terminal-line-20)">
</text><text class="terminal-r10" x="12.2" y="532.4" textLength="12.2" clip-path="url(#terminal-line-21)">█</text><text class="terminal-r11" x="36.6" y="532.4" textLength="109.8" clip-path="url(#terminal-line-21)">Assistant</text><text class="terminal-r1" x="1464" y="532.4" textLength="12.2" clip-path="url(#terminal-line-21)">
</text><text class="terminal-r10" x="12.2" y="556.8" textLength="12.2" clip-path="url(#terminal-line-22)">█</text><text class="terminal-r12" x="36.6" y="556.8" textLength="1403" clip-path="url(#terminal-line-22)">Sample&#160;assistant&#160;message&#160;#4.&#160;&#160;&#160;&#160;&#160;&#160;&#160;&#160;&#160;&#160;&#160;&#160;&#160;&#160;&#160;&#160;&#160;&#160;&#160;&#160;&#160;&#160;&#160;&#160;&#160;&#160;&#160;&#160;&#160;&#160;&#160;&#160;&#160;&#160;&#160;&#160;&#160;&#160;&#160;&#160;&#160;&#160;&#160;&#160;&#160;&#160;&#160;&#160;&#160;&#160;&#160;&#160;&#160;&#160;&#160;&#160;&#160;&#160;&#160;&#160;&#160;&#160;&#160;&#160;&#160;&#160;&#160;&#160;&#160;&#160;&#160;&#160;&#160;&#160;&#160;&#160;&#160;&#160;&#160;&#160;&#160;&#160;&#160;&#160;&#160;&#160;&#160;</text><text class="terminal-r1" x="1464" y="556.8" textLength="12.2" clip-path="url(#terminal-line-22)">
</text><text class="terminal-r1" x="1464" y="581.2" textLength="12.2" clip-path="url(#terminal-line-23)">
</text><text class="terminal-r5" x="12.2" y="605.6" textLength="12.2" clip-path="url(#terminal-line-24)">█</text><text class="terminal-r8" x="36.6" y="605.6" textLength="36.6" clip-path="url(#terminal-line-24)">You</text><text class="terminal-r1" x="1464" y="605.6" textLength="12.2" clip-path="url(#terminal-line-24)">
</text><text class="terminal-r5" x="12.2" y="630" textLength="12.2" clip-path="url(#terminal-line-25)">█</text><text class="terminal-r9" x="36.6" y="630" textLength="280.6" clip-path="url(#terminal-line-25)">Sample&#160;user&#160;message&#160;#5.</text><text class="terminal-r1" x="1464" y="630" textLength="12.2" clip-path="url(#terminal-line-25)">
</text><text class="terminal-r1" x="1464" y="654.4" textLength="12.2" clip-path="url(#terminal-line-26)">
</text><text class="terminal-r13" x="561.2" y="678.8" textLength="329.4" clip-path="url(#terminal-line-27)">---&#160;Restored&#160;5&#160;messages&#160;---</text><text class="terminal-r1" x="1464" y="678.8" textLength="12.2" clip-path="url(#terminal-line-27)">
</text><text class="terminal-r1" x="1464" y="703.2" textLength="12.2" clip-path="url(#terminal-line-28)">
</text><text class="terminal-r1" x="1464" y="727.6" textLength="12.2" clip-path="url(#terminal-line-29)">
</text><text class="terminal-r1" x="1464" y="752" textLength="12.2" clip-path="url(#terminal-line-30)">
</text><text class="terminal-r1" x="1464" y="776.4" textLength="12.2" clip-path="url(#terminal-line-31)">
</text><text class="terminal-r1" x="1464" y="800.8" textLength="12.2" clip-path="url(#terminal-line-32)">
</text><text class="terminal-r1" x="1464" y="825.2" textLength="12.2" clip-path="url(#terminal-line-33)">
</text><text class="terminal-r1" x="1464" y="849.6" textLength="12.2" clip-path="url(#terminal-line-34)">
</text><text class="terminal-r14" x="0" y="874" textLength="1464" clip-path="url(#terminal-line-35)">────────────────────────────────────────────────────────────────────────────────────────────────────────────────────────</text><text class="terminal-r1" x="1464" y="874" textLength="12.2" clip-path="url(#terminal-line-35)">
</text><text class="terminal-r5" x="12.2" y="898.4" textLength="1354.2" clip-path="url(#terminal-line-36)">┌─────────────────────────────────────────────────────────────────────────────────────────────────────────────┐</text><text class="terminal-r15" x="1378.6" y="898.4" textLength="73.2" clip-path="url(#terminal-line-36)">▔▔▔▔▔▔</text><text class="terminal-r1" x="1464" y="898.4" textLength="12.2" clip-path="url(#terminal-line-36)">
</text><text class="terminal-r5" x="12.2" y="922.8" textLength="12.2" clip-path="url(#terminal-line-37)">│</text><text class="terminal-r4" x="36.6" y="922.8" textLength="12.2" clip-path="url(#terminal-line-37)">T</text><text class="terminal-r16" x="48.8" y="922.8" textLength="829.6" clip-path="url(#terminal-line-37)">ype&#160;a&#160;message…&#160;(Enter&#160;to&#160;send,&#160;Shift+Enter&#160;for&#160;newline,&#160;↑/↓&#160;history)</text><text class="terminal-r5" x="1354.2" y="922.8" textLength="12.2" clip-path="url(#terminal-line-37)">│</text><text class="terminal-r17" x="1378.6" y="922.8" textLength="73.2" clip-path="url(#terminal-line-37)">&#160;Send&#160;</text><text class="terminal-r1" x="1464" y="922.8" textLength="12.2" clip-path="url(#terminal-line-37)">
</text><text class="terminal-r5" x="12.2" y="947.2" textLength="1354.2" clip-path="url(#terminal-line-38)">└─────────────────────────────────────────────────────────────────────────────────────────────────────────────┘</text><text class="terminal-r18" x="1378.6" y="947.2" textLength="73.2" clip-path="url(#terminal-line-38)">▁▁▁▁▁▁</text><text class="terminal-r1" x="1464" y="947.2" textLength="12.2" clip-path="url(#terminal-line-38)">
</text><text class="terminal-r3" x="24.4" y="971.6" textLength="12.2" clip-path="url(#terminal-line-39)">D</text><text class="terminal-r19" x="36.6" y="971.6" textLength="12.2" clip-path="url(#terminal-line-39)">.</text><text class="terminal-r3" x="48.8" y="971.6" textLength="12.2" clip-path="url(#terminal-line-39)">U</text><text class="terminal-r19" x="61" y="971.6" textLength="12.2" clip-path="url(#terminal-line-39)">.</text><text class="terminal-r3" x="73.2" y="971.6" textLength="12.2" clip-path="url(#terminal-line-39)">H</text><text class="terminal-r19" x="85.4" y="971.6" textLength="24.4" clip-path="url(#terminal-line-39)">.&#160;</text><text class="terminal-r19" x="109.8" y="971.6" textLength="109.8" clip-path="url(#terminal-line-39)">&#160;turn&#160;0&#160;&#160;</text><text class="terminal-r20" x="219.6" y="971.6" textLength="109.8" clip-path="url(#terminal-line-39)">connected</text>
    </g>
    </g>
</svg>
